<svg xmlns="http://www.w3.org/2000/svg" width="364.238" height="387.831" viewBox="0 0 364.238 387.831">
  <g id="Group_20" data-name="Group 20" transform="translate(-280.185 -85.31)">
    <path id="Path_22" data-name="Path 22" d="M67.219-44.2V135.313q0,35.683,11.8,48.858t35.958,13.175a76.83,76.83,0,0,0,26.625-4.941,73.423,73.423,0,0,0,23.88-14.273A74.618,74.618,0,0,0,182.5,155.625a65.369,65.369,0,0,0,6.588-29.644L190.737-1.269,251.673-44.2V241.264H190.737V199.542q-19.763,26.351-42.82,38.428A104.925,104.925,0,0,1,98.51,250.047q-49.956,0-71.641-25.8T5.185,145.194V-1.269Z" transform="translate(275 223.093)" fill="#1c0bfe"/>
    <path id="Path_23" data-name="Path 23" d="M61.344.446V196.489L5.61,241.264V-44.2Z" transform="translate(574.035 223.093)" fill="#1c0bfe"/>
    <path id="Path_24" data-name="Path 24" d="M70.219-60.69,37.864-29.172,6.538,1.344H5.44V-60.69Z" transform="translate(574.204 146)" fill="#1c0bfe"/>
  </g>
</svg>
